<svg width="37" height="14" viewBox="0 0 37 14" fill="none" xmlns="http://www.w3.org/2000/svg">
<g clip-path="url(#clip0_1_2)">
<path d="M32.667 0.200001H4C1.90132 0.200001 0.200001 1.90132 0.200001 4V10C0.200001 12.0987 1.90132 13.8 4 13.8H32.667C34.7657 13.8 36.467 12.0987 36.467 10V4C36.467 1.90132 34.7657 0.200001 32.667 0.200001Z" stroke="black" stroke-width="0.4"/>
<path d="M3.61364 9V4.63636H4.26136V5.31818H4.31818C4.40909 5.08523 4.55587 4.90436 4.75852 4.77557C4.96117 4.64489 5.20455 4.57955 5.48864 4.57955C5.77652 4.57955 6.0161 4.64489 6.20739 4.77557C6.40057 4.90436 6.55114 5.08523 6.65909 5.31818H6.70455C6.81629 5.0928 6.9839 4.91383 7.20739 4.78125C7.43087 4.64678 7.69886 4.57955 8.01136 4.57955C8.40152 4.57955 8.72064 4.7017 8.96875 4.94602C9.21686 5.18845 9.34091 5.56629 9.34091 6.07955V9H8.67045V6.07955C8.67045 5.75758 8.58239 5.52746 8.40625 5.3892C8.23011 5.25095 8.02273 5.18182 7.78409 5.18182C7.47727 5.18182 7.23958 5.27462 7.07102 5.46023C6.90246 5.64394 6.81818 5.87689 6.81818 6.15909V9H6.13636V6.01136C6.13636 5.76326 6.05587 5.56345 5.89489 5.41193C5.7339 5.25852 5.52652 5.18182 5.27273 5.18182C5.09848 5.18182 4.93561 5.22822 4.78409 5.32102C4.63447 5.41383 4.51326 5.54261 4.42045 5.70739C4.32955 5.87027 4.28409 6.05871 4.28409 6.27273V9H3.61364ZM11.8509 9.10227C11.5743 9.10227 11.3234 9.05019 11.098 8.94602C10.8726 8.83996 10.6937 8.6875 10.5611 8.48864C10.4285 8.28788 10.3622 8.04545 10.3622 7.76136C10.3622 7.51136 10.4115 7.30871 10.5099 7.15341C10.6084 6.99621 10.7401 6.87311 10.9048 6.78409C11.0696 6.69508 11.2514 6.62879 11.4503 6.58523C11.651 6.53977 11.8527 6.50379 12.0554 6.47727C12.3205 6.44318 12.5355 6.41761 12.7003 6.40057C12.867 6.38163 12.9882 6.35038 13.0639 6.30682C13.1416 6.26326 13.1804 6.1875 13.1804 6.07955V6.05682C13.1804 5.77652 13.1037 5.55871 12.9503 5.40341C12.7988 5.24811 12.5687 5.17045 12.2599 5.17045C11.9399 5.17045 11.6889 5.24053 11.5071 5.38068C11.3253 5.52083 11.1974 5.67045 11.1236 5.82955L10.4872 5.60227C10.6009 5.33712 10.7524 5.13068 10.9418 4.98295C11.133 4.83333 11.3414 4.72917 11.5668 4.67045C11.794 4.60985 12.0175 4.57955 12.2372 4.57955C12.3774 4.57955 12.5384 4.59659 12.7202 4.63068C12.9039 4.66288 13.081 4.73011 13.2514 4.83239C13.4238 4.93466 13.5668 5.08902 13.6804 5.29545C13.794 5.50189 13.8509 5.77841 13.8509 6.125V9H13.1804V8.40909H13.1463C13.1009 8.50379 13.0251 8.60511 12.919 8.71307C12.813 8.82102 12.6719 8.91288 12.4957 8.98864C12.3196 9.06439 12.1046 9.10227 11.8509 9.10227ZM11.9531 8.5C12.2183 8.5 12.4418 8.44792 12.6236 8.34375C12.8073 8.23958 12.9455 8.10511 13.0384 7.94034C13.133 7.77557 13.1804 7.60227 13.1804 7.42045V6.80682C13.152 6.84091 13.0895 6.87216 12.9929 6.90057C12.8982 6.92708 12.7884 6.95076 12.6634 6.97159C12.5402 6.99053 12.42 7.00758 12.3026 7.02273C12.187 7.03598 12.0933 7.04735 12.0213 7.05682C11.8471 7.07955 11.6842 7.11648 11.5327 7.16761C11.383 7.21686 11.2618 7.29167 11.169 7.39205C11.0781 7.49053 11.0327 7.625 11.0327 7.79545C11.0327 8.02841 11.1188 8.20455 11.2912 8.32386C11.4654 8.44129 11.6861 8.5 11.9531 8.5ZM15.0746 9V4.63636H15.745V9H15.0746ZM15.4155 3.90909C15.2848 3.90909 15.1721 3.86458 15.0774 3.77557C14.9846 3.68655 14.9382 3.57955 14.9382 3.45455C14.9382 3.32955 14.9846 3.22254 15.0774 3.13352C15.1721 3.04451 15.2848 3 15.4155 3C15.5462 3 15.6579 3.04451 15.7507 3.13352C15.8454 3.22254 15.8928 3.32955 15.8928 3.45455C15.8928 3.57955 15.8454 3.68655 15.7507 3.77557C15.6579 3.86458 15.5462 3.90909 15.4155 3.90909ZM17.6435 6.375V9H16.973V4.63636H17.6207V5.31818H17.6776C17.7798 5.09659 17.9351 4.91856 18.1435 4.78409C18.3518 4.64773 18.6207 4.57955 18.9503 4.57955C19.2457 4.57955 19.5043 4.64015 19.7259 4.76136C19.9474 4.88068 20.1198 5.0625 20.2429 5.30682C20.366 5.54924 20.4276 5.85606 20.4276 6.22727V9H19.7571V6.27273C19.7571 5.92992 19.6681 5.66288 19.4901 5.47159C19.312 5.27841 19.0677 5.18182 18.7571 5.18182C18.5431 5.18182 18.3518 5.22822 18.1832 5.32102C18.0166 5.41383 17.8849 5.54924 17.7884 5.72727C17.6918 5.9053 17.6435 6.12121 17.6435 6.375ZM22.3232 6.375V9H21.6527V4.63636H22.3004V5.31818H22.3572C22.4595 5.09659 22.6148 4.91856 22.8232 4.78409C23.0315 4.64773 23.3004 4.57955 23.63 4.57955C23.9254 4.57955 24.1839 4.64015 24.4055 4.76136C24.6271 4.88068 24.7995 5.0625 24.9226 5.30682C25.0457 5.54924 25.1072 5.85606 25.1072 6.22727V9H24.4368V6.27273C24.4368 5.92992 24.3478 5.66288 24.1697 5.47159C23.9917 5.27841 23.7474 5.18182 23.4368 5.18182C23.2228 5.18182 23.0315 5.22822 22.8629 5.32102C22.6963 5.41383 22.5646 5.54924 22.468 5.72727C22.3714 5.9053 22.3232 6.12121 22.3232 6.375ZM28.1619 9.09091C27.7415 9.09091 27.3788 8.99811 27.0739 8.8125C26.7708 8.625 26.5369 8.36364 26.3722 8.02841C26.2093 7.69129 26.1278 7.29924 26.1278 6.85227C26.1278 6.4053 26.2093 6.01136 26.3722 5.67045C26.5369 5.32765 26.7661 5.06061 27.0597 4.86932C27.3551 4.67614 27.6998 4.57955 28.0938 4.57955C28.321 4.57955 28.5455 4.61742 28.767 4.69318C28.9886 4.76894 29.1903 4.89205 29.3722 5.0625C29.554 5.23106 29.6989 5.45455 29.8068 5.73295C29.9148 6.01136 29.9688 6.35417 29.9688 6.76136V7.04545H26.6051V6.46591H29.2869C29.2869 6.2197 29.2377 6 29.1392 5.80682C29.0426 5.61364 28.9044 5.46117 28.7244 5.34943C28.5464 5.23769 28.3362 5.18182 28.0938 5.18182C27.8267 5.18182 27.5956 5.24811 27.4006 5.38068C27.2074 5.51136 27.0587 5.68182 26.9545 5.89205C26.8504 6.10227 26.7983 6.32765 26.7983 6.56818V6.95455C26.7983 7.28409 26.8551 7.56345 26.9688 7.79261C27.0843 8.01989 27.2443 8.19318 27.4489 8.3125C27.6534 8.42992 27.8911 8.48864 28.1619 8.48864C28.3381 8.48864 28.4972 8.46402 28.6392 8.41477C28.7831 8.36364 28.9072 8.28788 29.0114 8.1875C29.1155 8.08523 29.196 7.95833 29.2528 7.80682L29.9006 7.98864C29.8324 8.20833 29.7178 8.40152 29.5568 8.56818C29.3958 8.73295 29.197 8.86174 28.9602 8.95455C28.7235 9.04545 28.4574 9.09091 28.1619 9.09091ZM32.8864 4.63636V5.20455H30.625V4.63636H32.8864ZM31.2841 3.59091H31.9545V7.75C31.9545 7.93939 31.982 8.08144 32.0369 8.17614C32.0938 8.26894 32.1657 8.33144 32.2528 8.36364C32.3419 8.39394 32.4356 8.40909 32.5341 8.40909C32.608 8.40909 32.6686 8.4053 32.7159 8.39773C32.7633 8.38826 32.8011 8.38068 32.8295 8.375L32.9659 8.97727C32.9205 8.99432 32.857 9.01136 32.7756 9.02841C32.6941 9.04735 32.5909 9.05682 32.4659 9.05682C32.2765 9.05682 32.0909 9.0161 31.9091 8.93466C31.7292 8.85322 31.5795 8.72917 31.4602 8.5625C31.3428 8.39583 31.2841 8.18561 31.2841 7.93182V3.59091Z" fill="black"/>
</g>
<defs>
<clipPath id="clip0_1_2">
<rect width="37" height="14" fill="white"/>
</clipPath>
</defs>
</svg>
